<?xml version="1.0" encoding="UTF-8"?>
<svg id="_层_1" data-name="图层 1" xmlns="http://www.w3.org/2000/svg" viewBox="0 0 520 520">
  <defs>
    <style>
      .cls-1 {
        fill: #00143b;
      }
    </style>
  </defs>
  <path class="cls-1" d="M90.47,395.72c-25.34-23.06-38.01-54.77-38.01-95.14V105.75H127.57v194.83c0,13.36,2.96,24.89,8.88,34.6,5.92,9.72,13.88,17.23,23.9,22.53,10.01,5.31,20.78,7.97,32.32,7.97s22.68-2.65,32.55-7.97c9.86-5.31,17.67-12.9,23.44-22.76,5.76-9.86,8.65-21.32,8.65-34.37V105.75h75.11v194.83c0,40.36-12.67,72.08-38.01,95.14-25.34,23.07-59.25,34.6-101.74,34.6s-76.86-11.53-102.19-34.6Z"/>
  <path class="cls-1" d="M388.39,105.75h75.11V424.39h-75.11V105.75Z"/>
</svg>